<svg xmlns="http://www.w3.org/2000/svg" width="1200" height="1160" viewBox="0 0 1200 1160" role="img" aria-labelledby="title description">
  <title id="title">Repository field coverage against EuroSciVoc, OECD, DFG and ANZSRC classifications</title>
  <desc id="description">Stacked bars distinguish explicit child routing, dedicated audits, adjacent evidence, and unreviewed fields as of 2026-08-25.</desc>
  <rect width="1200" height="1160" rx="24" fill="#0b1d18"/>
  <text x="56" y="72" fill="#fffaf0" font-family="Georgia, serif" font-size="34" font-weight="700">How global is the research search?</text>
  <text x="56" y="104" fill="#b9c9c1" font-family="Segoe UI, sans-serif" font-size="16">Audit presence, not scientific completeness · 2026-08-25</text>
  <g transform="translate(724 61)">
    <circle cx="0" cy="0" r="7" fill="#24b47e"/><text x="14" y="5" fill="#b9c9c1" font-family="Segoe UI, sans-serif" font-size="13">dedicated</text>
    <circle cx="112" cy="0" r="7" fill="#ffb547"/><text x="126" y="5" fill="#b9c9c1" font-family="Segoe UI, sans-serif" font-size="13">adjacent</text>
    <circle cx="222" cy="0" r="7" fill="#f45b69"/><text x="236" y="5" fill="#b9c9c1" font-family="Segoe UI, sans-serif" font-size="13">unreviewed</text>
  </g>
  <rect x="36" y="132" width="1128" height="96" rx="16" fill="#122a22" stroke="#35584b"/>
  <text x="62" y="170" fill="#fffaf0" font-family="Georgia, serif" font-size="22" font-weight="700">EU EuroSciVoc 1.6 · 1,064 multilingual concepts</text>
  <text x="62" y="201" fill="#b9c9c1" font-family="Cascadia Mono, monospace" font-size="13">3 dedicated routes · 0 adjacent routes · 1061 unassigned concepts</text>
  <rect x="730" y="168" width="1.0855263157894737" height="24" rx="0" fill="#24b47e"><title>3 dedicated</title></rect><rect x="731.0855263157895" y="168" width="0" height="24" rx="0" fill="#ffb547"><title>0 adjacent</title></rect><rect x="731.0855263157895" y="168" width="383.9144736842105" height="24" rx="4" fill="#f45b69"><title>1061 unreviewed</title></rect>
  <rect x="36" y="248" width="1128" height="378" rx="16" fill="#122a22" stroke="#35584b"/>
  <text x="62" y="294" fill="#fffaf0" font-family="Georgia, serif" font-size="23" font-weight="700">OECD FORD · 42 global second-level fields</text>
  <text x="62" y="323" fill="#b9c9c1" font-family="Cascadia Mono, monospace" font-size="13">39 dedicated · 3 adjacent · 0 unreviewed</text>
  <text x="62" y="371" fill="#fffaf0" font-family="Segoe UI, sans-serif" font-size="13">1 · Natural sciences</text><rect x="372" y="353" width="373.6363636363636" height="24" rx="4" fill="#24b47e"><title>Natural sciences: 6 dedicated</title></rect><rect x="745.6363636363636" y="353" width="62.27272727272727" height="24" rx="4" fill="#ffb547"><title>Natural sciences: 1 adjacent</title></rect><rect x="807.9090909090909" y="353" width="0" height="24" rx="0" fill="#f45b69"><title>Natural sciences: 0 unreviewed</title></rect><text x="1067" y="371" fill="#b9c9c1" font-family="Cascadia Mono, monospace" font-size="12">7</text><text x="62" y="414" fill="#fffaf0" font-family="Segoe UI, sans-serif" font-size="13">2 · Engineering and technology</text><rect x="372" y="396" width="685" height="24" rx="4" fill="#24b47e"><title>Engineering and technology: 11 dedicated</title></rect><rect x="1057" y="396" width="0" height="24" rx="0" fill="#ffb547"><title>Engineering and technology: 0 adjacent</title></rect><rect x="1057" y="396" width="0" height="24" rx="0" fill="#f45b69"><title>Engineering and technology: 0 unreviewed</title></rect><text x="1067" y="414" fill="#b9c9c1" font-family="Cascadia Mono, monospace" font-size="12">11</text><text x="62" y="457" fill="#fffaf0" font-family="Segoe UI, sans-serif" font-size="13">3 · Medical and health sciences</text><rect x="372" y="439" width="249.0909090909091" height="24" rx="4" fill="#24b47e"><title>Medical and health sciences: 4 dedicated</title></rect><rect x="621.0909090909091" y="439" width="62.27272727272727" height="24" rx="4" fill="#ffb547"><title>Medical and health sciences: 1 adjacent</title></rect><rect x="683.3636363636364" y="439" width="0" height="24" rx="0" fill="#f45b69"><title>Medical and health sciences: 0 unreviewed</title></rect><text x="1067" y="457" fill="#b9c9c1" font-family="Cascadia Mono, monospace" font-size="12">5</text><text x="62" y="500" fill="#fffaf0" font-family="Segoe UI, sans-serif" font-size="13">4 · Agricultural and veterinary sciences</text><rect x="372" y="482" width="311.3636363636364" height="24" rx="4" fill="#24b47e"><title>Agricultural and veterinary sciences: 5 dedicated</title></rect><rect x="683.3636363636364" y="482" width="0" height="24" rx="0" fill="#ffb547"><title>Agricultural and veterinary sciences: 0 adjacent</title></rect><rect x="683.3636363636364" y="482" width="0" height="24" rx="0" fill="#f45b69"><title>Agricultural and veterinary sciences: 0 unreviewed</title></rect><text x="1067" y="500" fill="#b9c9c1" font-family="Cascadia Mono, monospace" font-size="12">5</text><text x="62" y="543" fill="#fffaf0" font-family="Segoe UI, sans-serif" font-size="13">5 · Social sciences</text><rect x="372" y="525" width="498.1818181818182" height="24" rx="4" fill="#24b47e"><title>Social sciences: 8 dedicated</title></rect><rect x="870.1818181818182" y="525" width="62.27272727272727" height="24" rx="4" fill="#ffb547"><title>Social sciences: 1 adjacent</title></rect><rect x="932.4545454545455" y="525" width="0" height="24" rx="0" fill="#f45b69"><title>Social sciences: 0 unreviewed</title></rect><text x="1067" y="543" fill="#b9c9c1" font-family="Cascadia Mono, monospace" font-size="12">9</text><text x="62" y="586" fill="#fffaf0" font-family="Segoe UI, sans-serif" font-size="13">6 · Humanities and the arts</text><rect x="372" y="568" width="311.3636363636364" height="24" rx="4" fill="#24b47e"><title>Humanities and the arts: 5 dedicated</title></rect><rect x="683.3636363636364" y="568" width="0" height="24" rx="0" fill="#ffb547"><title>Humanities and the arts: 0 adjacent</title></rect><rect x="683.3636363636364" y="568" width="0" height="24" rx="0" fill="#f45b69"><title>Humanities and the arts: 0 unreviewed</title></rect><text x="1067" y="586" fill="#b9c9c1" font-family="Cascadia Mono, monospace" font-size="12">5</text>
  <rect x="36" y="648" width="1128" height="244" rx="16" fill="#122a22" stroke="#35584b"/>
  <text x="62" y="694" fill="#fffaf0" font-family="Georgia, serif" font-size="23" font-weight="700">DFG 2024–2028 · 49 review boards / 214 subjects</text>
  <text x="62" y="723" fill="#b9c9c1" font-family="Cascadia Mono, monospace" font-size="13">44 dedicated · 5 adjacent · 0 unreviewed</text>
  <text x="62" y="771" fill="#fffaf0" font-family="Segoe UI, sans-serif" font-size="13">1 · Geistes- und Sozialwissenschaften</text><rect x="372" y="753" width="396.57894736842104" height="24" rx="4" fill="#24b47e"><title>Geistes- und Sozialwissenschaften: 11 dedicated</title></rect><rect x="768.578947368421" y="753" width="72.10526315789474" height="24" rx="4" fill="#ffb547"><title>Geistes- und Sozialwissenschaften: 2 adjacent</title></rect><rect x="840.6842105263158" y="753" width="0" height="24" rx="0" fill="#f45b69"><title>Geistes- und Sozialwissenschaften: 0 unreviewed</title></rect><text x="1067" y="771" fill="#b9c9c1" font-family="Cascadia Mono, monospace" font-size="12">13</text><text x="62" y="807" fill="#fffaf0" font-family="Segoe UI, sans-serif" font-size="13">2 · Lebenswissenschaften</text><rect x="372" y="789" width="252.36842105263156" height="24" rx="4" fill="#24b47e"><title>Lebenswissenschaften: 7 dedicated</title></rect><rect x="624.3684210526316" y="789" width="0" height="24" rx="0" fill="#ffb547"><title>Lebenswissenschaften: 0 adjacent</title></rect><rect x="624.3684210526316" y="789" width="0" height="24" rx="0" fill="#f45b69"><title>Lebenswissenschaften: 0 unreviewed</title></rect><text x="1067" y="807" fill="#b9c9c1" font-family="Cascadia Mono, monospace" font-size="12">7</text><text x="62" y="843" fill="#fffaf0" font-family="Segoe UI, sans-serif" font-size="13">3 · Naturwissenschaften</text><rect x="372" y="825" width="576.8421052631579" height="24" rx="4" fill="#24b47e"><title>Naturwissenschaften: 16 dedicated</title></rect><rect x="948.8421052631579" y="825" width="108.1578947368421" height="24" rx="4" fill="#ffb547"><title>Naturwissenschaften: 3 adjacent</title></rect><rect x="1057" y="825" width="0" height="24" rx="0" fill="#f45b69"><title>Naturwissenschaften: 0 unreviewed</title></rect><text x="1067" y="843" fill="#b9c9c1" font-family="Cascadia Mono, monospace" font-size="12">19</text><text x="62" y="879" fill="#fffaf0" font-family="Segoe UI, sans-serif" font-size="13">4 · Ingenieurwissenschaften</text><rect x="372" y="861" width="360.52631578947364" height="24" rx="4" fill="#24b47e"><title>Ingenieurwissenschaften: 10 dedicated</title></rect><rect x="732.5263157894736" y="861" width="0" height="24" rx="0" fill="#ffb547"><title>Ingenieurwissenschaften: 0 adjacent</title></rect><rect x="732.5263157894736" y="861" width="0" height="24" rx="0" fill="#f45b69"><title>Ingenieurwissenschaften: 0 unreviewed</title></rect><text x="1067" y="879" fill="#b9c9c1" font-family="Cascadia Mono, monospace" font-size="12">10</text>
  <rect x="36" y="910" width="1128" height="82" rx="16" fill="#122a22" stroke="#35584b"/>
  <text x="62" y="944" fill="#fffaf0" font-family="Georgia, serif" font-size="21" font-weight="700">ANZSRC 2020 · 23 divisions / 213 groups / 1,967 fields</text>
  <text x="62" y="972" fill="#b9c9c1" font-family="Cascadia Mono, monospace" font-size="13">23 dedicated · 0 adjacent · 0 unreviewed at division resolution</text>
  <rect x="730" y="942" width="385" height="24" rx="4" fill="#24b47e"><title>23 dedicated</title></rect><rect x="1115" y="942" width="0" height="24" rx="0" fill="#ffb547"><title>0 adjacent</title></rect><rect x="1115" y="942" width="0" height="24" rx="0" fill="#f45b69"><title>0 unreviewed</title></rect>
  <rect x="36" y="1010" width="1128" height="82" rx="16" fill="#102c24" stroke="#24b47e"/>
  <text x="62" y="1044" fill="#24b47e" font-family="Cascadia Mono, monospace" font-size="13" font-weight="700">CROSS-TAXONOMY SIGNAL · ANZSRC 2020 45</text>
  <text x="62" y="1072" fill="#fffaf0" font-family="Georgia, serif" font-size="20" font-weight="700">Indigenous Studies — dedicated audit; not separately visible in OECD / DFG</text>
  <text x="56" y="1136" fill="#b9c9c1" font-family="Segoe UI, sans-serif" font-size="12">Parent-level green does not propagate. EuroSciVoc concepts, DFG subjects, ANZSRC groups, and ANZSRC fields require explicit routing.</text>
</svg>
