<svg xmlns="http://www.w3.org/2000/svg" width="1100" height="660" viewBox="0 0 1100 660" role="img" aria-labelledby="title desc">
  <title id="title">Same endpoint, different internal state</title>
  <desc id="desc">Analytic output of the audit's bounded-play toy oracle; the paths and coefficients are illustrative and are not a calibrated soil model.</desc>
  <rect width="1100" height="660" rx="24" fill="#101c18"/>
  <rect x="36" y="30" width="361" height="30" rx="15" fill="#203b31" stroke="#3f6b5b"/>
  <text x="52" y="50" fill="#36d399" font-family="Segoe UI, sans-serif" font-size="13" font-weight="700" letter-spacing="1.2">PATH-DEPENDENCE ORACLE · ANALYTICAL</text>
  <text x="54" y="94" fill="#fffaf0" font-family="Georgia, serif" font-size="32" font-weight="700">Same endpoint, different internal state</text>
  <text x="54" y="123" fill="#aabbb4" font-family="Cascadia Mono, monospace" font-size="14">z_t = clip(z_(t-1), sigma_t - r, sigma_t + r)</text>
  <rect x="112" y="150" width="928" height="406" rx="8" fill="#14251f" stroke="#315047"/>
  <line x1="154.1818181818182" y1="150" x2="154.1818181818182" y2="556" stroke="#315047" stroke-width="1" opacity=".7"/><text x="154.1818181818182" y="580" fill="#aabbb4" font-family="Cascadia Mono, monospace" font-size="12" text-anchor="middle">-5</text><line x1="322.9090909090909" y1="150" x2="322.9090909090909" y2="556" stroke="#315047" stroke-width="1" opacity=".7"/><text x="322.9090909090909" y="580" fill="#aabbb4" font-family="Cascadia Mono, monospace" font-size="12" text-anchor="middle">-3</text><line x1="491.6363636363637" y1="150" x2="491.6363636363637" y2="556" stroke="#315047" stroke-width="1" opacity=".7"/><text x="491.6363636363637" y="580" fill="#aabbb4" font-family="Cascadia Mono, monospace" font-size="12" text-anchor="middle">-1</text><line x1="660.3636363636364" y1="150" x2="660.3636363636364" y2="556" stroke="#315047" stroke-width="1" opacity=".7"/><text x="660.3636363636364" y="580" fill="#aabbb4" font-family="Cascadia Mono, monospace" font-size="12" text-anchor="middle">1</text><line x1="829.0909090909091" y1="150" x2="829.0909090909091" y2="556" stroke="#315047" stroke-width="1" opacity=".7"/><text x="829.0909090909091" y="580" fill="#aabbb4" font-family="Cascadia Mono, monospace" font-size="12" text-anchor="middle">3</text><line x1="997.8181818181819" y1="150" x2="997.8181818181819" y2="556" stroke="#315047" stroke-width="1" opacity=".7"/><text x="997.8181818181819" y="580" fill="#aabbb4" font-family="Cascadia Mono, monospace" font-size="12" text-anchor="middle">5</text><line x1="112" y1="509.1538461538462" x2="1040" y2="509.1538461538462" stroke="#315047" stroke-width="1" opacity=".7"/><text x="96" y="513.1538461538462" fill="#aabbb4" font-family="Cascadia Mono, monospace" font-size="12" text-anchor="end">-0.06</text><line x1="112" y1="431.0769230769231" x2="1040" y2="431.0769230769231" stroke="#315047" stroke-width="1" opacity=".7"/><text x="96" y="435.0769230769231" fill="#aabbb4" font-family="Cascadia Mono, monospace" font-size="12" text-anchor="end">-0.03</text><line x1="112" y1="353" x2="1040" y2="353" stroke="#315047" stroke-width="1" opacity=".7"/><text x="96" y="357" fill="#aabbb4" font-family="Cascadia Mono, monospace" font-size="12" text-anchor="end">0.00</text><line x1="112" y1="274.9230769230769" x2="1040" y2="274.9230769230769" stroke="#315047" stroke-width="1" opacity=".7"/><text x="96" y="278.9230769230769" fill="#aabbb4" font-family="Cascadia Mono, monospace" font-size="12" text-anchor="end">0.03</text><line x1="112" y1="196.8461538461538" x2="1040" y2="196.8461538461538" stroke="#315047" stroke-width="1" opacity=".7"/><text x="96" y="200.8461538461538" fill="#aabbb4" font-family="Cascadia Mono, monospace" font-size="12" text-anchor="end">0.06</text><line x1="112" y1="353" x2="1040" y2="353" stroke="#fffaf0" stroke-width="2" opacity=".75"/>
  <path d="M576.00,353.00 L660.36,339.99 L744.73,326.97 L829.09,274.92 L913.45,222.87 L997.82,170.82 L913.45,183.83 L829.09,196.85" fill="none" stroke="#ff6b6b" stroke-width="6" stroke-linejoin="round"/>
  <path d="M576.00,353.00 L491.64,366.01 L407.27,379.03 L322.91,431.08 L238.55,483.13 L154.18,535.18 L238.55,522.17 L322.91,509.15 L407.27,496.14 L491.64,483.13 L576.00,431.08 L660.36,379.03 L744.73,326.97 L829.09,274.92" fill="none" stroke="#45b7d1" stroke-width="6" stroke-linejoin="round"/>
  <circle cx="576" cy="353" r="3.5" fill="#ff6b6b" stroke="#fffaf0" stroke-width="0"/><circle cx="660.3636363636364" cy="339.98717948717945" r="3.5" fill="#ff6b6b" stroke="#fffaf0" stroke-width="0"/><circle cx="744.7272727272726" cy="326.974358974359" r="3.5" fill="#ff6b6b" stroke="#fffaf0" stroke-width="0"/><circle cx="829.0909090909091" cy="274.9230769230769" r="3.5" fill="#ff6b6b" stroke="#fffaf0" stroke-width="0"/><circle cx="913.4545454545455" cy="222.8717948717948" r="3.5" fill="#ff6b6b" stroke="#fffaf0" stroke-width="0"/><circle cx="997.8181818181819" cy="170.82051282051282" r="3.5" fill="#ff6b6b" stroke="#fffaf0" stroke-width="0"/><circle cx="913.4545454545455" cy="183.83333333333331" r="3.5" fill="#ff6b6b" stroke="#fffaf0" stroke-width="0"/><circle cx="829.0909090909091" cy="196.8461538461538" r="8" fill="#ff6b6b" stroke="#fffaf0" stroke-width="2"/><circle cx="576" cy="353" r="3.5" fill="#45b7d1" stroke="#fffaf0" stroke-width="0"/><circle cx="491.6363636363637" cy="366.01282051282055" r="3.5" fill="#45b7d1" stroke="#fffaf0" stroke-width="0"/><circle cx="407.27272727272725" cy="379.025641025641" r="3.5" fill="#45b7d1" stroke="#fffaf0" stroke-width="0"/><circle cx="322.9090909090909" cy="431.0769230769231" r="3.5" fill="#45b7d1" stroke="#fffaf0" stroke-width="0"/><circle cx="238.54545454545453" cy="483.1282051282052" r="3.5" fill="#45b7d1" stroke="#fffaf0" stroke-width="0"/><circle cx="154.1818181818182" cy="535.1794871794872" r="3.5" fill="#45b7d1" stroke="#fffaf0" stroke-width="0"/><circle cx="238.54545454545453" cy="522.1666666666667" r="3.5" fill="#45b7d1" stroke="#fffaf0" stroke-width="0"/><circle cx="322.9090909090909" cy="509.1538461538462" r="3.5" fill="#45b7d1" stroke="#fffaf0" stroke-width="0"/><circle cx="407.27272727272725" cy="496.14102564102564" r="3.5" fill="#45b7d1" stroke="#fffaf0" stroke-width="0"/><circle cx="491.6363636363637" cy="483.12820512820514" r="3.5" fill="#45b7d1" stroke="#fffaf0" stroke-width="0"/><circle cx="576" cy="431.0769230769231" r="3.5" fill="#45b7d1" stroke="#fffaf0" stroke-width="0"/><circle cx="660.3636363636364" cy="379.025641025641" r="3.5" fill="#45b7d1" stroke="#fffaf0" stroke-width="0"/><circle cx="744.7272727272726" cy="326.974358974359" r="3.5" fill="#45b7d1" stroke="#fffaf0" stroke-width="0"/><circle cx="829.0909090909091" cy="274.9230769230769" r="8" fill="#45b7d1" stroke="#fffaf0" stroke-width="2"/>
  <line x1="851.0909090909091" y1="196.8461538461538" x2="851.0909090909091" y2="274.9230769230769" stroke="#ffb04a" stroke-width="4"/>
  <line x1="843.0909090909091" y1="196.8461538461538" x2="859.0909090909091" y2="196.8461538461538" stroke="#ffb04a" stroke-width="4"/>
  <line x1="843.0909090909091" y1="274.9230769230769" x2="859.0909090909091" y2="274.9230769230769" stroke="#ffb04a" stroke-width="4"/>
  <text x="871.0909090909091" y="227.88461538461536" fill="#ffb04a" font-family="Segoe UI, sans-serif" font-size="15" font-weight="700">same final stress: 3 kPa</text>
  <text x="871.0909090909091" y="249.88461538461536" fill="#ffb04a" font-family="Cascadia Mono, monospace" font-size="12">z = 3 vs 1 kPa</text>
  <line x1="720" y1="82" x2="764" y2="82" stroke="#ff6b6b" stroke-width="6"/><text x="778" y="87" fill="#aabbb4" font-family="Segoe UI, sans-serif" font-size="13">positive excursion first</text>
  <line x1="720" y1="110" x2="764" y2="110" stroke="#45b7d1" stroke-width="6"/><text x="778" y="115" fill="#aabbb4" font-family="Segoe UI, sans-serif" font-size="13">negative excursion first</text>
  <text x="576" y="617" fill="#fffaf0" font-family="Segoe UI, sans-serif" font-size="15" text-anchor="middle">input stress sigma_t (kPa)</text>
  <text x="28" y="353" fill="#fffaf0" font-family="Segoe UI, sans-serif" font-size="15" text-anchor="middle" transform="rotate(-90 28 353)">toy response strain epsilon_t (dimensionless)</text>
  <text x="1040" y="638" fill="#aabbb4" font-family="Segoe UI, sans-serif" font-size="11" text-anchor="end">r=2 kPa · E=200 kPa · H=50 kPa · not a soil law</text>
</svg>
